<svg width="488" height="330" viewBox="0 0 488 330" fill="none" xmlns="http://www.w3.org/2000/svg">
<g clip-path="url(#clip0_424_18525)">
<path d="M298.564 322.351C298.564 326.557 295.135 329.987 290.902 329.987L211.877 330H181.676C177.442 330 174.013 326.583 174.013 322.365L174 250.086L298.551 250.06V266.605L298.564 322.351Z" fill="#00B7F4"/>
<path d="M174 250.073H298.551L241.261 204.775C237.66 201.069 231.673 201.148 228.178 204.946L174 250.073Z" fill="#061C3D"/>
<path d="M174 250.073C174 250.073 228.244 296.108 237.278 296.108C246.312 296.108 298.551 250.06 298.551 250.06L174 250.073Z" fill="#100E3A"/>
<path d="M194.531 267.264V231.821C194.531 229.155 196.693 227 199.369 227H274.232C276.908 227 279.071 229.155 279.071 231.821V266.378C279.071 266.378 242.924 297 237.186 297C231.931 297 194.531 267.264 194.531 267.264Z" fill="white" stroke="#72849C" stroke-opacity="0.03" stroke-miterlimit="10"/>
<path d="M236.178 238.839H205.137V240.14H236.178V238.839Z" fill="#D9D9FC"/>
<path d="M268.461 245.846H205.137V247.147H268.461V245.846Z" fill="#D9D9FC"/>
<path d="M268.461 252.854H205.137V254.155H268.461V252.854Z" fill="#D9D9FC"/>
<path d="M253.165 259.861H205.137V261.163H253.165V259.861Z" fill="#D9D9FC"/>
<path d="M268.461 266.858H205.137V268.159H268.461V266.858Z" fill="#D9D9FC"/>
<path d="M234.883 273.866H205.137V275.167H234.883V273.866Z" fill="#D9D9FC"/>
<path d="M287.352 199.597V193.657" stroke="#100E3A" stroke-opacity="0.49" stroke-miterlimit="10" stroke-linecap="round" stroke-linejoin="round"/>
<path d="M279.572 202.817L275.352 198.611" stroke="#100E3A" stroke-opacity="0.49" stroke-miterlimit="10" stroke-linecap="round" stroke-linejoin="round"/>
<path d="M276.34 210.583H270.379" stroke="#100E3A" stroke-opacity="0.49" stroke-miterlimit="10" stroke-linecap="round" stroke-linejoin="round"/>
<path d="M279.572 218.337L275.352 222.542" stroke="#100E3A" stroke-opacity="0.49" stroke-miterlimit="10" stroke-linecap="round" stroke-linejoin="round"/>
<path d="M287.352 221.557V227.497" stroke="#100E3A" stroke-opacity="0.49" stroke-miterlimit="10" stroke-linecap="round" stroke-linejoin="round"/>
<path d="M295.148 218.337L299.369 222.542" stroke="#100E3A" stroke-opacity="0.49" stroke-miterlimit="10" stroke-linecap="round" stroke-linejoin="round"/>
<path d="M298.379 210.583H304.34" stroke="#100E3A" stroke-opacity="0.49" stroke-miterlimit="10" stroke-linecap="round" stroke-linejoin="round"/>
<path d="M295.148 202.817L299.369 198.611" stroke="#100E3A" stroke-opacity="0.49" stroke-miterlimit="10" stroke-linecap="round" stroke-linejoin="round"/>
<path d="M178 254.02C178 254.02 230.214 297.094 237.73 297C246.017 296.906 296 253 296 253" stroke="#0050D2" stroke-miterlimit="10" stroke-linecap="round" stroke-linejoin="round"/>
<path d="M183 325.152L226.033 296" stroke="#0050D2" stroke-miterlimit="10" stroke-linecap="round" stroke-linejoin="round"/>
<path d="M291.875 326.364L249 297" stroke="#0050D2" stroke-miterlimit="10" stroke-linecap="round" stroke-linejoin="round"/>
</g>
<path d="M264.324 23.03L363.194 0L293.704 38.39L264.324 23.03Z" fill="#0072DD"/>
<path d="M363.195 0L341.085 67.28L305.395 44.55L363.195 0Z" fill="#0072DD"/>
<path d="M293.703 38.39L297.813 67.28L305.393 44.55L363.193 0L293.703 38.39Z" fill="#209BD7"/>
<path d="M297.812 67.2798L319.283 53.3898L305.392 44.5498L297.812 67.2798Z" fill="#00B7F4"/>
<path d="M440 148.954L487.025 138L453.974 156.259L440 148.954Z" fill="#0072DD"/>
<path d="M487.026 138L476.51 170L459.535 159.189L487.026 138Z" fill="#0072DD"/>
<path d="M453.973 156.259L455.927 170L459.533 159.189L487.024 138L453.973 156.259Z" fill="#209BD7"/>
<path d="M455.93 170L466.141 163.393L459.535 159.189L455.93 170Z" fill="#00B7F4"/>
<path d="M0 76.9536L47.025 66L13.9738 84.2592L0 76.9536Z" fill="#0072DD"/>
<path d="M47.0262 66L36.5102 98L19.5352 87.1891L47.0262 66Z" fill="#0072DD"/>
<path d="M13.9727 84.2592L15.9275 98L19.5327 87.1891L47.0238 66L13.9727 84.2592Z" fill="#209BD7"/>
<path d="M15.9297 97.9999L26.1413 91.3935L19.5349 87.189L15.9297 97.9999Z" fill="#00B7F4"/>
<path d="M176.498 327.5C65.4986 335 -1.62909 208.7 108.201 180.87C218.031 153.04 134.711 275.07 89.5909 215.41C44.4709 155.75 117.691 110.77 192.261 119.7C266.831 128.63 289.881 71.6201 289.881 71.6201" stroke="#0074B3" stroke-miterlimit="10" stroke-dasharray="12 12"/>
<defs>
<clipPath id="clip0_424_18525">
<rect width="131" height="137" fill="white" transform="translate(174 193)"/>
</clipPath>
</defs>
</svg>
